# xmcd CD database file
#
# Track frame offsets:
#	187
#	20722
#	43082
#	58437
#	76707
#	102167
#	122525
#	142962
#	161135
#	179112
#
# Disc length: 2717 seconds
#
# Revision: 0
# Processed by: cddbd v1.5.1PL2 Copyright (c) Steve Scherf et al.
# Submitted via: CDex 1.51
#
DISCID=8a0a9b0a
DTITLE=LINE-UP - MAN
DYEAR=1989
DGENRE=Rock
TTITLE0=BEAT STREET
TTITLE1=CRY FOR THE MOON
TTITLE2=CONFUSION
TTITLE3=REIGN OF TERROR
TTITLE4=FLASH BACK
TTITLE5=SHE CHOSE TO FALL DOWN
TTITLE6=A RED CENT DREAM
TTITLE7=HUNGRY EYES
TTITLE8=GE! GAME
TTITLE9=MAN
EXTD=YEAR: 1989
EXTT0=
EXTT1=
EXTT2=
EXTT3=
EXTT4=
EXTT5=
EXTT6=
EXTT7=
EXTT8=
EXTT9=
PLAYORDER=
